HIERARCHY
ROOT Hips
{
	OFFSET -0.001795 -0.223333 0.028219
	CHANNELS 6 Xposition Yposition Zposition Zrotation Yrotation Xrotation 
	JOINT LeftUpLeg
	{
		OFFSET 0.069520 -0.091406 -0.006815
		CHANNELS 3 Zrotation Yrotation Xrotation
		JOINT LeftLeg
		{
			OFFSET 0.034277 -0.375199 -0.004496
			CHANNELS 3 Zrotation Yrotation Xrotation
			JOINT LeftFoot
			{
				OFFSET -0.013596 -0.397961 -0.043693
				CHANNELS 3 Zrotation Yrotation Xrotation
				JOINT LeftToe
				{
					OFFSET 0.026358 -0.055791 0.119288
					CHANNELS 3 Zrotation Yrotation Xrotation
					End Site
					{
						OFFSET 0.000000 0.000000 0.000000
					}
				}
			}
		}
	}
	JOINT RightUpLeg
	{
		OFFSET -0.067670 -0.090522 -0.004320
		CHANNELS 3 Zrotation Yrotation Xrotation
		JOINT RightLeg
		{
			OFFSET -0.038290 -0.382569 -0.008850
			CHANNELS 3 Zrotation Yrotation Xrotation
			JOINT RightFoot
			{
				OFFSET 0.015774 -0.398415 -0.042312
				CHANNELS 3 Zrotation Yrotation Xrotation
				JOINT RightToe
				{
					OFFSET -0.025372 -0.048144 0.123348
					CHANNELS 3 Zrotation Yrotation Xrotation
					End Site
					{
						OFFSET 0.000000 0.000000 0.000000
					}
				}
			}
		}
	}
	JOINT Spine
	{
		OFFSET -0.002533 0.108963 -0.026696
		CHANNELS 3 Zrotation Yrotation Xrotation
		JOINT Spine1
		{
			OFFSET 0.005487 0.135180 0.001092
			CHANNELS 3 Zrotation Yrotation Xrotation
			JOINT Spine2
			{
				OFFSET 0.001457 0.052922 0.025425
				CHANNELS 3 Zrotation Yrotation Xrotation
				JOINT Neck
				{
					OFFSET -0.002778 0.213870 -0.042857
					CHANNELS 3 Zrotation Yrotation Xrotation
					JOINT Head
					{
						OFFSET 0.005152 0.064970 0.051349
						CHANNELS 3 Zrotation Yrotation Xrotation
						End Site
						{
							OFFSET 0.000000 0.000000 0.000000
						}
					}
				}
				JOINT LeftShoulder
				{
					OFFSET 0.078845 0.121749 -0.034090
					CHANNELS 3 Zrotation Yrotation Xrotation
					JOINT LeftArm
					{
						OFFSET 0.090977 0.030469 -0.008868
						CHANNELS 3 Zrotation Yrotation Xrotation
						JOINT LeftForeArm
						{
							OFFSET 0.259612 -0.012772 -0.027456
							CHANNELS 3 Zrotation Yrotation Xrotation
							JOINT LeftHand
							{
								OFFSET 0.249234 0.008986 -0.001171
								CHANNELS 3 Zrotation Yrotation Xrotation
								End Site
								{
									OFFSET 0.000000 0.000000 0.000000
								}
							}
						}
					}
				}
				JOINT RightShoulder
				{
					OFFSET -0.081759 0.118833 -0.038615
					CHANNELS 3 Zrotation Yrotation Xrotation
					JOINT RightArm
					{
						OFFSET -0.096012 0.032551 -0.009143
						CHANNELS 3 Zrotation Yrotation Xrotation
						JOINT RightForeArm
						{
							OFFSET -0.253742 -0.013329 -0.021401
							CHANNELS 3 Zrotation Yrotation Xrotation
							JOINT RightHand
							{
								OFFSET -0.255298 0.007772 -0.005559
								CHANNELS 3 Zrotation Yrotation Xrotation
								End Site
								{
									OFFSET 0.000000 0.000000 0.000000
								}
							}
						}
					}
				}
			}
		}
	}
}
MOTION
Frames: 7
Frame Time: 0.050000
0.000000 0.929883 0.000000 -2.303229 -7.186855 2.405349 -2.414904 0.213486 1.657641 -0.923991 0.264728 -5.602242 0.036919 0.331893 0.673013 0.000000 0.000000 0.000000 -6.702988 0.659986 -8.298997 3.820829 -0.132527 12.249675 -3.458277 -8.468181 -0.310454 0.000000 0.000000 0.000000 -0.007539 -0.029904 0.727048 -1.454249 0.765144 4.198248 2.604117 2.795453 6.121565 3.789983 -1.091460 -18.087538 0.000000 0.000000 0.000000 -29.593665 -7.940754 2.876968 -37.548790 3.139375 -5.484760 -43.916267 -69.282306 34.753420 0.000000 0.000000 0.000000 29.922953 12.024314 4.586084 41.697312 5.190792 -2.221024 -22.799462 42.972815 -7.226035 0.000000 0.000000 0.000000 
-0.002363 0.929955 0.000061 -1.982841 -8.550361 3.154344 -1.596640 0.228540 1.954110 -2.767550 0.445378 -7.517135 0.049757 0.945742 2.441599 0.000000 0.000000 0.000000 -6.945575 0.755174 -9.660635 3.535544 -0.050704 11.966868 -3.410796 -8.461092 -0.014304 0.000000 0.000000 0.000000 -1.145703 0.049482 -0.676658 -1.377871 0.745623 4.087380 3.003826 2.003908 7.382368 2.894249 -0.663728 -19.154694 0.000000 0.000000 0.000000 -28.933406 -6.535487 2.655155 -38.314043 2.763209 -5.755053 -61.543325 -71.510365 51.009655 0.000000 0.000000 0.000000 29.161336 12.133130 4.010022 43.477693 5.725532 -2.012938 -26.041131 44.319137 -8.999489 0.000000 0.000000 0.000000 
-0.006189 0.931597 0.000329 -1.671874 -8.829109 3.694377 -0.954029 0.194417 1.782040 -3.466817 0.490474 -7.424209 -0.216522 0.346839 2.318029 0.000000 0.000000 0.000000 -7.559144 0.840438 -11.504273 4.861087 -0.277860 12.673731 -3.794874 -9.131025 -0.726732 0.000000 0.000000 0.000000 -1.060887 0.087264 -1.686143 -1.035750 0.563284 3.655784 2.250726 1.530386 7.884064 2.877654 -0.900484 -17.036019 0.000000 0.000000 0.000000 -28.384624 -6.788320 3.039640 -37.462055 2.385366 -5.602404 -60.938193 -72.046822 51.072249 0.000000 0.000000 0.000000 30.689707 12.186077 3.840167 42.757418 4.737187 -2.260709 -24.518192 44.757852 -8.527136 0.000000 0.000000 0.000000 
-0.011881 0.932032 0.001107 -1.510759 -9.293677 3.492469 -0.086169 0.244276 2.460386 -4.516949 0.569188 -7.990310 -0.221784 0.440104 2.662986 0.000000 0.000000 0.000000 -7.513338 0.873544 -12.012752 4.538791 -0.210305 12.349486 -3.686266 -9.025472 -0.314429 0.000000 0.000000 0.000000 -1.735223 0.117818 -2.418642 -0.825003 0.488948 4.954573 2.333419 0.457587 7.479939 2.315360 -0.693033 -16.999413 0.000000 0.000000 0.000000 -28.674471 -6.559587 3.369579 -36.314844 2.673322 -5.600959 -71.141137 -72.971517 61.032717 0.000000 0.000000 0.000000 31.068441 12.460687 3.401774 43.546336 3.395822 -2.529074 -26.386568 47.510068 -10.217362 0.000000 0.000000 0.000000 
-0.019213 0.933013 0.002686 -1.300314 -9.361800 3.077341 0.405793 0.292303 3.062732 -4.432037 0.565316 -7.993737 -0.419892 -0.083311 2.323892 0.000000 0.000000 0.000000 -7.622278 0.832154 -11.375312 4.589987 -0.246955 11.084042 -2.918471 -7.413116 0.288405 0.000000 0.000000 0.000000 -1.630385 0.104332 -2.109069 -0.840192 0.500843 5.062191 2.223940 -0.562168 7.213754 2.144638 -0.761976 -16.104353 0.000000 0.000000 0.000000 -28.966521 -6.596407 3.811476 -34.905718 2.146692 -5.349075 -76.155530 -73.183189 65.993108 0.000000 0.000000 0.000000 31.148022 11.307566 2.088767 43.751700 1.850493 -2.900205 -21.933339 50.939386 -9.208876 0.000000 0.000000 0.000000 
-0.027866 0.933682 0.005295 -1.232608 -9.674095 2.673559 0.603871 0.349411 3.672549 -4.221996 0.559960 -8.425109 -0.565850 -0.318788 2.537892 0.000000 0.000000 0.000000 -7.250139 0.773923 -9.954968 4.227845 -0.220494 9.224951 -1.991638 -5.218055 0.442816 0.000000 0.000000 0.000000 -1.679487 0.102730 -2.119066 -0.567980 0.377888 5.760592 2.155328 -1.314734 6.523855 1.317854 -0.366775 -15.554077 0.000000 0.000000 0.000000 -29.490843 -6.276295 3.924907 -33.375252 1.940429 -5.119056 -82.292043 -72.588722 71.236174 0.000000 0.000000 0.000000 30.775693 10.853077 1.377636 44.645262 -0.498656 -3.639430 -17.702743 54.773036 -8.106887 0.000000 0.000000 0.000000 
-0.037157 0.933810 0.008513 -1.079920 -9.589802 2.386422 0.912608 0.371064 3.990765 -4.021221 0.543590 -8.001057 -0.503286 -0.154928 2.631129 0.000000 0.000000 0.000000 -6.625974 0.708582 -8.508172 3.490997 -0.161692 7.054419 -1.275062 -4.028844 1.475913 0.000000 0.000000 0.000000 -1.727320 0.098248 -2.037057 -0.368494 0.261911 5.428285 1.656778 -1.626201 6.418380 1.403399 -0.458642 -15.203571 0.000000 0.000000 0.000000 -28.863179 -5.795949 3.640617 -33.024271 1.465139 -4.961438 -88.431014 -70.702840 75.311625 0.000000 0.000000 0.000000 30.319343 9.650938 0.512181 45.676304 -2.511063 -4.465837 -11.552603 57.416522 -5.353404 0.000000 0.000000 0.000000 
